<svg xmlns="http://www.w3.org/2000/svg" version="1.1" xmlns:xlink="http://www.w3.org/1999/xlink" xmlns:svgjs="http://svgjs.dev/svgjs" viewBox="0 0 800 800"><defs><linearGradient x1="50%" y1="0%" x2="50%" y2="100%" id="ccchaos-grad"><stop stop-color="hsl(206, 75%, 49%)" stop-opacity="1" offset="0%"></stop><stop stop-color="hsl(331, 90%, 56%)" stop-opacity="1" offset="100%"></stop></linearGradient></defs><g stroke-width="2" stroke="url(#ccchaos-grad)" fill="none" stroke-linecap="round"><path d="M378.95 108.65C388.32 106.56 397.66 105.17 406.94 104.51 416.23 104.12 425.49 104.52 434.69 105.68 443.94 107.18 453.17 109.46 462.39 112.48 471.68 115.83 480.99 119.89 490.33 124.6 499.78 129.57 509.3 135.14 518.88 141.23 528.61 147.5 538.43 154.22 548.32 161.34 558.36 168.52 568.47 176.04 578.61 183.82 588.85 191.59 599.07 199.59 609.19 207.77 619.3 215.87 629.2 224.13 638.78 232.53 648.16 240.82 657.07 249.23 665.36 257.76 673.22 266.17 680.29 274.71 686.43 283.36 691.93 291.92 696.35 300.61 699.59 309.45 702.06 318.2 703.3 327.12 703.28 336.21 702.53 345.24 700.6 354.46 697.55 363.87 694.04 373.25 689.64 382.84 684.49 392.64 679.33 402.42 673.76 412.42 667.96 422.63 662.67 432.84 657.59 443.01 652.88 453.13 649.02 463.24 645.65 473.29 642.8 483.22 640.89 493.14 639.45 502.93 638.43 512.52 638.19 522.07 638.19 531.39 638.3 540.43 638.91 549.36 639.4 557.96 639.65 566.14 640.06 574.16 640.02 581.71 639.44 588.72 638.75 595.51 637.37 601.7 635.27 607.23 631.3 614.79 618.93 626.02 610.61 629.69 604.52 631.72 597.75 633.15 590.4 634 582.79 634.86 574.67 635.29 566.11 635.39 557.39 635.74 548.3 635.96 538.91 636.14 529.44 636.84 519.72 637.71 509.83 638.82 499.9 640.69 489.84 642.93 479.68 645.59 469.52 649.07 459.28 652.97 449.01 657.24 438.75 662.2 428.46 667.38 418.16 672.63 407.85 678.24 397.78 683.48 387.95 688.22 378.1 692.85 368.47 696.66 359.06 699.56 349.63 701.97 340.39 703.27 331.36 703.42 322.28 702.88 313.38 701.14 304.67 698.23 295.88 694.61 287.27 689.9 278.82 684.18 270.29 677.88 261.92 670.73 253.72 662.83 245.44 654.56 237.32 645.72 229.38 636.43 221.37 626.97 213.55 617.21 205.96 607.24 198.32 597.27 190.93 587.18 183.82 577.06 176.71 567.04 169.91 557.02 163.47 547.05 157.09 537.21 151.11 527.43 145.56 517.71 140.13 508.12 135.18 498.58 130.74 489.07 126.46 479.68 122.72 470.29 119.55 460.91 116.58 451.6 114.18 442.26 112.4 432.9 110.8 423.57 109.81 414.18 109.44 404.76 109.22 395.34 109.6 385.86 110.6 376.34 111.69 366.82 113.33 357.47 115.46 348.33 117.62 339.19 120.22 330.25 123.24 321.56 126.2 312.87 129.53 304.43 133.19 296.28 136.72 288.14 140.56 280.3 144.67 272.79 148.61 265.31 152.8 258.16 157.23 251.37 161.47 244.62 165.94 238.22 170.64 232.21 175.16 226.2 179.91 220.56 184.9 215.3 189.74 210 194.83 205.05 200.18 200.44 205.43 195.74 210.96 191.34 216.76 187.21 222.51 182.94 228.56 178.88 234.9 175.04 241.22 170.97 247.86 167.06 254.79 163.3 261.72 159.26 268.96 155.33 276.49 151.51 284.03 147.4 291.85 143.4 299.94 139.53 308.03 135.41 316.38 131.45 324.96 127.72 333.55 123.81 342.35 120.2 351.36 116.96 360.36 113.69 369.56 110.9 378.94 108.66" stroke-dasharray="7 4" transform="rotate(0, 400, 400)" opacity="0.35"></path><path d="M380.79 119.5C389.84 117.42 398.89 116.02 407.92 115.32 416.96 114.87 426 115.17 435.02 116.2 444.07 117.54 453.15 119.63 462.22 122.44 471.37 125.55 480.56 129.35 489.78 133.78 499.11 138.47 508.5 143.75 517.94 149.54 527.51 155.51 537.14 161.94 546.82 168.76 556.61 175.67 566.43 182.92 576.23 190.46 586.09 198 595.87 205.78 605.5 213.76 615.07 221.68 624.39 229.78 633.33 238.01 642.06 246.17 650.27 254.45 657.86 262.85 665.02 271.15 671.4 279.57 676.88 288.1 681.75 296.55 685.61 305.12 688.35 313.81 690.41 322.44 691.33 331.21 691.08 340.12 690.2 348.98 688.24 358.01 685.26 367.19 681.89 376.35 677.71 385.68 672.84 395.18 667.97 404.67 662.72 414.34 657.24 424.18 652.22 434.02 647.37 443.79 642.82 453.47 639.04 463.14 635.67 472.71 632.76 482.13 630.7 491.54 629.05 500.78 627.78 509.8 627.23 518.76 626.91 527.48 626.71 535.88 626.99 544.19 627.19 552.13 627.21 559.66 627.44 567.03 627.28 573.94 626.66 580.31 625.38 589.29 619.34 603.9 614.41 609.44 608.35 614.02 592.37 619.94 582.64 621.51 575.72 622.44 568.3 623.01 560.41 623.32 552.38 623.9 543.95 624.38 535.2 624.84 526.36 625.82 517.24 626.96 507.92 628.32 498.55 630.38 489.01 632.77 479.35 635.52 469.67 639.02 459.88 642.88 450.02 647.04 440.17 651.83 430.26 656.79 420.3 661.78 410.35 667.11 400.59 672.08 391.03 676.57 381.47 680.98 372.09 684.65 362.91 687.46 353.7 689.86 344.67 691.24 335.82 691.56 326.93 691.27 318.2 689.87 309.65 687.39 301.03 684.26 292.56 680.09 284.26 674.97 275.89 669.3 267.66 662.79 259.61 655.56 251.48 647.94 243.51 639.74 235.73 631.07 227.9 622.19 220.26 612.97 212.84 603.5 205.39 593.98 198.2 584.31 191.28 574.55 184.38 564.84 177.79 555.1 171.56 545.38 165.4 535.75 159.62 526.15 154.28 516.6 149.06 507.15 144.3 497.75 140.05 488.39 135.95 479.12 132.39 469.87 129.38 460.64 126.55 451.48 124.3 442.31 122.64 433.15 121.15 424.02 120.26 414.87 119.97 405.71 119.83 396.56 120.28 387.39 121.32 378.21 122.45 369.03 124.11 360.05 126.26 351.29 128.42 342.54 131.02 334.01 134.02 325.73 136.96 317.45 140.25 309.44 143.87 301.71 147.37 293.99 151.15 286.57 155.2 279.46 159.09 272.38 163.22 265.61 167.57 259.19 171.75 252.79 176.14 246.72 180.75 241.01 185.18 235.28 189.84 229.9 194.7 224.85 199.43 219.76 204.38 214.98 209.58 210.5 214.66 205.93 220 201.61 225.61 197.55 231.13 193.32 236.94 189.29 243.03 185.46 249.08 181.39 255.42 177.48 262.04 173.7 268.65 169.65 275.55 165.7 282.72 161.88 289.89 157.77 297.35 153.79 305.06 149.94 312.77 145.85 320.73 141.93 328.94 138.25 337.14 134.4 345.57 130.86 354.22 127.67 362.86 124.47 371.72 121.72 380.78 119.5" stroke-dasharray="7 6" transform="rotate(4.04, 400, 400)" opacity="0.76"></path><path d="M383.29 130.35C392.04 128.29 400.81 126.89 409.58 126.14 418.37 125.64 427.18 125.84 435.99 126.74 444.85 127.94 453.73 129.84 462.64 132.43 471.61 135.31 480.63 138.85 489.69 143 498.83 147.4 508.04 152.37 517.28 157.85 526.62 163.51 536 169.63 545.4 176.14 554.87 182.76 564.33 189.73 573.73 196.98 583.14 204.27 592.43 211.8 601.52 219.54 610.51 227.25 619.21 235.15 627.51 243.18 635.56 251.17 643.09 259.28 649.99 267.51 656.47 275.67 662.18 283.95 667.03 292.32 671.33 300.63 674.66 309.05 676.96 317.58 678.64 326.05 679.27 334.65 678.83 343.36 677.85 352.03 675.88 360.84 672.99 369.78 669.77 378.7 665.8 387.76 661.21 396.95 656.64 406.14 651.7 415.47 646.52 424.92 641.77 434.38 637.14 443.73 632.77 452.96 629.07 462.18 625.73 471.27 622.77 480.18 620.58 489.07 618.75 497.76 617.25 506.21 616.42 514.61 615.8 522.73 615.3 530.52 615.28 538.22 615.2 545.55 614.98 552.46 614.85 562.38 612.74 579.49 610.39 586.54 607.23 592.73 597.4 601.94 590.71 605.04 585.8 606.86 580.29 608.22 574.23 609.15 567.96 610.19 561.18 610.93 553.94 611.44 546.56 612.25 538.78 612.99 530.66 613.73 522.44 614.96 513.93 616.34 505.17 617.92 496.37 620.15 487.37 622.67 478.2 625.49 469.02 628.99 459.7 632.79 450.28 636.84 440.85 641.45 431.33 646.19 421.75 650.94 412.16 655.98 402.73 660.69 393.47 664.94 384.2 669.14 375.09 672.64 366.15 675.37 357.19 677.74 348.38 679.17 339.74 679.64 331.05 679.57 322.52 678.48 314.13 676.38 305.7 673.7 297.41 670.05 289.27 665.49 281.08 660.42 273.02 654.55 265.13 647.96 257.19 640.99 249.4 633.43 241.8 625.38 234.16 617.11 226.72 608.47 219.5 599.54 212.27 590.52 205.29 581.31 198.58 571.97 191.92 562.65 185.56 553.25 179.55 543.84 173.62 534.49 168.07 525.13 162.94 515.81 157.95 506.57 153.4 497.36 149.34 488.19 145.44 479.09 142.05 470.02 139.21 460.99 136.54 452.01 134.43 443.05 132.89 434.11 131.52 425.2 130.73 416.29 130.52 407.41 130.46 398.53 130.96 389.66 132.04 380.81 133.21 371.96 134.89 363.33 137.03 354.94 139.19 346.56 141.78 338.41 144.75 330.52 147.66 322.63 150.92 315.01 154.49 307.67 157.95 300.33 161.68 293.29 165.67 286.56 169.5 279.83 173.57 273.41 177.85 267.31 181.97 261.22 186.29 255.44 190.81 249.99 195.17 244.51 199.73 239.34 204.49 234.48 209.11 229.56 213.95 224.92 219 220.55 223.94 216.07 229.12 211.83 234.54 207.8 239.88 203.61 245.47 199.61 251.33 195.77 257.13 191.71 263.21 187.78 269.55 183.99 275.86 179.93 282.46 175.99 289.31 172.16 296.15 168.07 303.26 164.1 310.63 160.28 317.99 156.24 325.6 152.38 333.46 148.74 341.3 144.97 349.39 141.49 357.7 138.37 366 135.23 374.53 132.53 383.28 130.35" stroke-dasharray="7 6" transform="rotate(8.08, 400, 400)" opacity="0.64"></path><path d="M386.38 141.19C394.83 139.17 403.31 137.76 411.83 136.98 420.35 136.42 428.92 136.54 437.51 137.31 446.13 138.36 454.8 140.09 463.51 142.46 472.26 145.11 481.07 148.39 489.91 152.26 498.82 156.37 507.77 161.03 516.75 166.19 525.8 171.54 534.87 177.33 543.92 183.52 553.01 189.82 562.05 196.47 570.99 203.42 579.91 210.42 588.66 217.68 597.18 225.14 605.57 232.62 613.63 240.27 621.27 248.08 628.66 255.85 635.51 263.77 641.73 271.79 647.56 279.77 652.65 287.86 656.91 296.05 660.66 304.18 663.51 312.42 665.4 320.75 666.75 329.04 667.14 337.44 666.55 345.93 665.49 354.39 663.53 362.96 660.74 371.64 657.67 380.29 653.92 389.06 649.6 397.93 645.31 406.8 640.67 415.77 635.81 424.83 631.31 433.89 626.91 442.82 622.71 451.59 619.11 460.36 615.8 468.96 612.82 477.36 610.53 485.74 608.54 493.89 606.84 501.78 605.77 509.62 604.87 517.17 604.1 524.38 603.77 531.5 603.42 538.26 602.97 544.59 602.52 553.68 600.18 569.28 597.94 575.68 595.04 581.33 586.15 589.83 580.11 592.77 573.22 595.24 556.45 598.58 546.74 599.77 539.98 600.8 532.81 601.79 525.3 602.79 517.69 604.25 509.76 605.85 501.58 607.63 493.34 610 484.87 612.62 476.22 615.5 467.54 618.98 458.7 622.71 449.72 626.64 440.74 631.07 431.64 635.59 422.44 640.09 413.24 644.87 404.15 649.31 395.21 653.33 386.26 657.3 377.44 660.64 368.76 663.27 360.07 665.6 351.51 667.07 343.08 667.66 334.63 667.78 326.31 666.96 318.12 665.21 309.9 662.95 301.81 659.77 293.85 655.75 285.86 651.25 278.01 645.98 270.31 640.01 262.57 633.69 254.99 626.77 247.6 619.35 240.18 611.7 232.96 603.65 225.96 595.29 218.97 586.81 212.22 578.1 205.76 569.24 199.34 560.35 193.22 551.36 187.45 542.31 181.77 533.3 176.46 524.26 171.57 515.22 166.8 506.25 162.47 497.28 158.62 488.36 154.93 479.49 151.72 470.64 149.05 461.84 146.55 453.08 144.58 444.35 143.16 435.65 141.91 426.99 141.22 418.34 141.08 409.74 141.09 401.14 141.65 392.57 142.76 384.05 143.96 375.53 145.64 367.24 147.78 359.21 149.94 351.17 152.5 343.38 155.43 335.86 158.32 328.33 161.54 321.07 165.05 314.09 168.46 307.1 172.14 300.4 176.06 294 179.85 287.6 183.86 281.48 188.07 275.68 192.12 269.85 196.37 264.33 200.81 259.1 205.1 253.83 209.58 248.85 214.24 244.14 218.77 239.36 223.5 234.83 228.43 230.55 233.24 226.15 238.28 221.96 243.53 217.96 248.7 213.8 254.11 209.8 259.76 205.96 265.34 201.9 271.19 197.97 277.28 194.16 283.33 190.11 289.64 186.17 296.21 182.35 302.75 178.28 309.55 174.35 316.61 170.56 323.64 166.57 330.93 162.77 338.45 159.2 345.97 155.51 353.73 152.1 361.72 149.04 369.7 145.98 377.92 143.34 386.37 141.19" stroke-dasharray="0 3" transform="rotate(12.12, 400, 400)" opacity="0.86"></path><path d="M389.93 152.04C398.09 150.04 406.29 148.64 414.53 147.83 422.79 147.23 431.1 147.26 439.44 147.92 447.81 148.83 456.23 150.38 464.69 152.54 473.19 154.96 481.73 157.99 490.31 161.57 498.93 165.39 507.59 169.74 516.24 174.57 524.94 179.59 533.64 185.05 542.28 190.89 550.94 196.87 559.51 203.19 567.94 209.8 576.33 216.49 584.51 223.44 592.43 230.61 600.2 237.8 607.62 245.18 614.61 252.72 621.33 260.25 627.53 267.92 633.1 275.71 638.3 283.47 642.8 291.34 646.51 299.3 649.76 307.23 652.18 315.25 653.71 323.35 654.77 331.43 654.94 339.59 654.23 347.84 653.12 356.06 651.19 364.37 648.51 372.75 645.6 381.13 642.08 389.59 638.02 398.12 634.01 406.65 629.66 415.25 625.09 423.9 620.85 432.55 616.67 441.05 612.64 449.37 609.15 457.68 605.9 465.8 602.91 473.7 600.54 481.57 598.43 489.2 596.56 496.56 595.26 503.87 594.12 510.87 593.09 517.53 592.18 527.22 590.42 544.48 589.19 551.94 585.3 564.28 574.7 577.76 569.22 580.61 562.98 583.12 547.76 586.83 538.88 588.32 532.7 589.57 526.11 590.79 519.17 592.03 512.14 593.7 504.79 595.5 497.16 597.45 489.48 599.94 481.54 602.63 473.4 605.54 465.23 608.99 456.87 612.64 448.35 616.43 439.82 620.68 431.15 624.98 422.35 629.25 413.55 633.75 404.83 637.95 396.23 641.73 387.62 645.49 379.11 648.66 370.71 651.19 362.31 653.46 354.01 654.95 345.84 655.64 337.64 655.92 329.56 655.34 321.6 653.91 313.61 652.01 305.74 649.28 298.01 645.75 290.25 641.79 282.61 637.09 275.13 631.73 267.63 626.02 260.29 619.73 253.13 612.94 245.96 605.91 238.98 598.47 232.23 590.7 225.5 582.79 219.01 574.63 212.8 566.27 206.65 557.87 200.8 549.32 195.29 540.7 189.87 532.08 184.81 523.4 180.16 514.72 175.64 506.06 171.54 497.4 167.9 488.77 164.42 480.17 161.41 471.6 158.9 463.06 156.57 454.56 154.74 446.09 153.45 437.67 152.32 429.27 151.72 420.91 151.66 412.59 151.74 404.29 152.34 396.03 153.47 387.83 154.7 379.63 156.39 371.67 158.51 363.98 160.65 356.27 163.19 348.82 166.07 341.64 168.92 334.45 172.09 327.52 175.54 320.87 178.9 314.2 182.53 307.81 186.38 301.71 190.11 295.59 194.05 289.75 198.19 284.19 202.18 278.61 206.37 273.3 210.73 268.26 214.95 263.18 219.35 258.34 223.93 253.77 228.37 249.11 233 244.67 237.81 240.46 242.51 236.11 247.42 231.96 252.53 227.99 257.55 223.85 262.79 219.86 268.26 216.01 273.65 211.96 279.28 208.03 285.15 204.21 290.96 200.18 297.03 196.25 303.33 192.44 309.6 188.41 316.13 184.51 322.89 180.77 329.63 176.85 336.61 173.12 343.84 169.62 351.04 166.02 358.49 162.69 366.18 159.71 373.85 156.72 381.77 154.15 389.92 152.04" stroke-dasharray="6 8" transform="rotate(16.16, 400, 400)" opacity="0.71"></path><path d="M393.84 162.88C401.69 160.93 409.61 159.53 417.57 158.7 425.54 158.05 433.57 158.01 441.64 158.55 449.73 159.33 457.87 160.71 466.04 162.66 474.24 164.87 482.48 167.64 490.74 170.94 499.03 174.47 507.33 178.51 515.61 183.01 523.92 187.69 532.19 192.8 540.38 198.3 548.55 203.93 556.62 209.9 564.51 216.17 572.33 222.52 579.93 229.13 587.23 235.97 594.38 242.85 601.16 249.93 607.49 257.17 613.58 264.41 619.13 271.81 624.09 279.32 628.71 286.82 632.65 294.43 635.86 302.13 638.66 309.81 640.68 317.58 641.9 325.43 642.69 333.25 642.69 341.15 641.89 349.12 640.74 357.07 638.87 365.09 636.3 373.17 633.56 381.24 630.25 389.37 626.46 397.54 622.72 405.72 618.66 413.93 614.37 422.17 610.38 430.41 606.43 438.47 602.57 446.34 599.2 454.19 596.01 461.83 593.04 469.24 590.61 476.63 588.4 483.75 586.39 490.6 584.89 497.4 583.53 503.89 582.27 510.04 580.98 518.99 578.56 534.86 577.1 541.7 573.1 553.1 563.11 565.78 558.09 568.6 552.42 571.18 538.55 575.3 530.44 577.1 524.78 578.56 518.74 579.99 512.34 581.44 505.86 583.31 499.05 585.27 491.96 587.37 484.81 589.94 477.4 592.69 469.76 595.61 462.1 599.01 454.23 602.57 446.17 606.23 438.1 610.29 429.87 614.38 421.49 618.4 413.1 622.65 404.77 626.59 396.52 630.14 388.27 633.69 380.09 636.69 372.01 639.11 363.92 641.31 355.92 642.8 348.01 643.57 340.1 643.98 332.28 643.61 324.58 642.46 316.86 640.9 309.24 638.57 301.75 635.5 294.25 632.04 286.87 627.88 279.64 623.09 272.41 617.98 265.32 612.3 258.42 606.13 251.53 599.72 244.82 592.89 238.34 585.72 231.89 578.4 225.69 570.8 219.75 562.99 213.89 555.1 208.31 547.05 203.07 538.89 197.93 530.71 193.14 522.45 188.74 514.16 184.47 505.88 180.61 497.57 177.19 489.27 173.92 481 171.11 472.74 168.78 464.51 166.61 456.31 164.94 448.14 163.77 440.02 162.76 431.91 162.25 423.84 162.26 415.84 162.4 407.84 163.04 399.89 164.19 392.01 165.43 384.14 167.12 376.51 169.21 369.13 171.34 361.75 173.83 354.63 176.67 347.76 179.47 340.88 182.58 334.26 185.97 327.91 189.27 321.54 192.83 315.43 196.61 309.59 200.28 303.73 204.16 298.13 208.22 292.79 212.15 287.42 216.27 282.29 220.55 277.42 224.7 272.49 229.03 267.78 233.52 263.31 237.88 258.75 242.42 254.39 247.13 250.23 251.73 245.94 256.52 241.82 261.5 237.86 266.38 233.75 271.48 229.76 276.77 225.91 281.99 221.87 287.44 217.95 293.1 214.13 298.71 210.12 304.55 206.21 310.61 202.43 316.64 198.45 322.9 194.61 329.4 190.92 335.86 187.08 342.57 183.43 349.51 180.01 356.42 176.5 363.58 173.26 370.97 170.36 378.35 167.46 385.97 164.95 393.83 162.88" stroke-dasharray="4 5" transform="rotate(20.200000000000003, 400, 400)" opacity="0.11"></path><path d="M397.96 173.73C405.51 171.82 413.13 170.43 420.79 169.58 428.47 168.9 436.19 168.78 443.96 169.22 451.74 169.86 459.57 171.08 467.41 172.84 475.28 174.83 483.18 177.35 491.07 180.38 498.98 183.62 506.89 187.34 514.75 191.51 522.61 195.86 530.42 200.62 538.11 205.75 545.78 211.02 553.3 216.63 560.63 222.53 567.87 228.52 574.86 234.78 581.55 241.27 588.07 247.81 594.22 254.55 599.92 261.45 605.39 268.38 610.34 275.46 614.72 282.66 618.79 289.87 622.22 297.18 624.97 304.59 627.36 311.99 629.03 319.47 629.97 327.02 630.55 334.56 630.4 342.17 629.53 349.83 628.38 357.48 626.56 365.19 624.13 372.93 621.55 380.67 618.46 388.46 614.93 396.26 611.44 404.06 607.66 411.88 603.65 419.7 599.91 427.52 596.17 435.14 592.5 442.56 589.26 449.96 586.14 457.14 583.2 464.07 580.74 470.99 578.45 477.63 576.33 484 573.89 493.33 570.02 510.3 568.34 517.86 566.96 524.94 563.52 537.06 561.22 542.09 555.06 550.31 541.64 559.48 535.58 561.71 528.95 564.03 513.57 568.58 504.89 571.04 498.93 573.06 492.64 575.17 486.05 577.38 479.42 580.02 472.52 582.8 465.38 585.71 458.21 589.05 450.82 592.5 443.22 596.02 435.62 599.89 427.83 603.76 419.88 607.55 411.92 611.55 404 615.24 396.12 618.57 388.25 621.91 380.42 624.74 372.67 627.04 364.92 629.16 357.23 630.64 349.63 631.46 342.02 631.98 334.5 631.79 327.08 630.88 319.65 629.63 312.32 627.66 305.11 625.01 297.9 622.01 290.8 618.36 283.85 614.12 276.91 609.57 270.12 604.48 263.5 598.91 256.9 593.11 250.5 586.89 244.31 580.32 238.17 573.59 232.26 566.57 226.62 559.32 221.05 551.98 215.78 544.45 210.82 536.79 205.96 529.1 201.45 521.3 197.31 513.43 193.3 505.57 189.69 497.66 186.49 489.75 183.45 481.84 180.84 473.94 178.69 466.05 176.69 458.19 175.16 450.34 174.11 442.54 173.21 434.76 172.8 427.01 172.87 419.33 173.07 411.65 173.75 404.02 174.91 396.47 176.16 388.91 177.83 381.6 179.89 374.54 181.99 367.48 184.44 360.66 187.22 354.09 189.97 347.51 193.01 341.17 196.32 335.09 199.57 328.99 203.05 323.14 206.75 317.54 210.35 311.91 214.15 306.52 218.14 301.37 222 296.18 226.05 291.22 230.25 286.48 234.33 281.68 238.58 277.09 242.98 272.71 247.27 268.23 251.72 263.94 256.33 259.82 260.84 255.58 265.52 251.49 270.37 247.55 275.14 243.45 280.09 239.48 285.23 235.64 290.3 231.62 295.58 227.71 301.05 223.92 306.47 219.94 312.1 216.07 317.95 212.32 323.75 208.41 329.78 204.63 336.02 201.01 342.24 197.25 348.68 193.69 355.35 190.35 361.99 186.95 368.87 183.81 375.97 180.99 383.06 178.18 390.39 175.74 397.95 173.73" stroke-dasharray="8 3" transform="rotate(24.24, 400, 400)" opacity="0.37"></path><path d="M402.14 184.57C409.4 182.71 416.7 181.34 424.05 180.48 431.41 179.77 438.81 179.58 446.24 179.92 453.69 180.44 461.17 181.5 468.66 183.07 476.16 184.85 483.67 187.13 491.16 189.89 498.66 192.84 506.13 196.26 513.53 200.09 520.92 204.1 528.23 208.51 535.4 213.28 542.53 218.18 549.49 223.41 556.24 228.93 562.89 234.55 569.28 240.43 575.35 246.55 581.26 252.72 586.8 259.09 591.9 265.64 596.77 272.22 601.16 278.96 604.99 285.81 608.55 292.69 611.52 299.67 613.85 306.75 615.87 313.83 617.24 320.99 617.94 328.21 618.34 335.44 618.08 342.72 617.17 350.04 616.02 357.37 614.28 364.73 611.98 372.12 609.57 379.51 606.7 386.93 603.41 394.34 600.18 401.76 596.67 409.17 592.93 416.57 589.43 423.96 585.91 431.15 582.43 438.12 579.31 445.08 576.29 451.81 573.4 458.29 570.93 464.75 568.59 470.94 566.38 476.85 563.72 485.52 559.28 501.24 557.31 508.23 553.69 520.45 546.76 535.19 543.52 538.89 539.91 542.34 530.73 548.05 525.14 550.47 519.05 553.02 504.92 558.09 496.93 560.8 491.44 562.96 485.63 565.18 479.53 567.49 473.39 570.17 466.97 572.96 460.31 575.84 453.62 579.1 446.7 582.44 439.57 585.81 432.44 589.49 425.1 593.15 417.58 596.71 410.06 600.45 402.55 603.91 395.07 607.02 387.59 610.14 380.14 612.81 372.74 614.98 365.35 617.01 358.01 618.47 350.73 619.32 343.47 619.92 336.27 619.88 329.16 619.19 322.05 618.2 315.04 616.56 308.13 614.29 301.24 611.72 294.45 608.54 287.81 604.8 281.19 600.79 274.71 596.25 268.4 591.26 262.13 586.05 256.05 580.43 250.17 574.45 244.35 568.32 238.76 561.89 233.44 555.21 228.19 548.43 223.22 541.45 218.56 534.31 214 527.13 209.77 519.82 205.9 512.43 202.16 505.02 198.79 497.55 195.83 490.05 193 482.55 190.59 475.03 188.62 467.53 186.79 460.03 185.41 452.55 184.49 445.1 183.7 437.66 183.37 430.25 183.5 422.9 183.75 415.56 184.46 408.26 185.63 401.04 186.88 393.81 188.53 386.82 190.56 380.07 192.61 373.31 195.01 366.79 197.72 360.5 200.41 354.2 203.39 348.14 206.61 342.31 209.78 336.46 213.19 330.84 216.8 325.45 220.33 320.03 224.05 314.83 227.95 309.85 231.74 304.83 235.7 300.01 239.82 295.4 243.83 290.72 248 286.22 252.31 281.92 256.52 277.52 260.88 273.28 265.39 269.2 269.8 265.01 274.38 260.95 279.12 257.03 283.77 252.96 288.6 249.02 293.59 245.19 298.52 241.2 303.64 237.32 308.94 233.55 314.18 229.62 319.62 225.8 325.26 222.11 330.86 218.27 336.66 214.56 342.67 211.03 348.65 207.37 354.84 203.91 361.24 200.67 367.63 197.37 374.23 194.33 381.05 191.61 387.85 188.89 394.88 186.53 402.13 184.58" stroke-dasharray="2 5" transform="rotate(28.28, 400, 400)" opacity="0.53"></path><path d="M406.26 195.42C413.2 193.61 420.18 192.27 427.2 191.39 434.22 190.65 441.28 190.41 448.35 190.65 455.44 191.07 462.54 191.97 469.64 193.36 476.75 194.93 483.84 196.98 490.89 199.48 497.95 202.15 504.95 205.26 511.86 208.77 518.75 212.44 525.54 216.49 532.17 220.89 538.75 225.42 545.14 230.27 551.31 235.4 557.37 240.63 563.16 246.13 568.63 251.84 573.95 257.63 578.9 263.62 583.42 269.78 587.74 275.98 591.59 282.34 594.94 288.83 598.03 295.34 600.57 301.97 602.54 308.68 604.23 315.4 605.34 322.21 605.83 329.08 606.08 335.95 605.73 342.88 604.8 349.85 603.68 356.81 602.02 363.82 599.87 370.83 597.62 377.84 594.96 384.87 591.92 391.89 588.94 398.91 585.69 405.91 582.21 412.88 578.95 419.85 575.64 426.6 572.35 433.14 569.37 439.67 566.45 445.96 563.62 452.01 561.16 458.04 558.79 463.81 556.52 469.3 553.7 477.36 548.78 491.96 546.53 498.45 542.43 509.89 535.13 523.9 531.93 527.54 524.13 533.94 508.98 542.28 502.67 544.88 495.95 547.82 480.84 554.16 472.5 557.68 466.82 560.38 460.87 563.16 454.67 566 448.45 569.17 441.99 572.38 435.32 575.6 428.64 579.08 421.75 582.52 414.68 585.86 407.6 589.36 400.51 592.58 393.44 595.48 386.36 598.4 379.31 600.89 372.29 602.94 365.27 604.88 358.3 606.29 351.38 607.16 344.47 607.82 337.63 607.9 330.86 607.4 324.1 606.64 317.43 605.29 310.86 603.36 304.31 601.17 297.87 598.42 291.56 595.15 285.28 591.64 279.14 587.63 273.17 583.19 267.24 578.54 261.5 573.5 255.96 568.1 250.48 562.56 245.23 556.71 240.23 550.6 235.3 544.4 230.65 537.97 226.3 531.38 222.05 524.72 218.11 517.93 214.52 511.03 211.05 504.11 207.93 497.1 205.2 490.05 202.6 482.99 200.39 475.9 198.6 468.8 196.94 461.7 195.69 454.6 194.89 447.53 194.21 440.46 193.96 433.41 194.15 426.41 194.45 419.42 195.18 412.47 196.35 405.57 197.59 398.68 199.22 392.01 201.2 385.56 203.21 379.11 205.55 372.87 208.18 366.86 210.8 360.83 213.69 355.02 216.83 349.43 219.92 343.81 223.23 338.41 226.75 333.22 230.19 327.99 233.82 322.96 237.62 318.14 241.33 313.27 245.21 308.58 249.23 304.08 253.16 299.51 257.24 295.1 261.46 290.87 265.58 286.54 269.85 282.36 274.26 278.33 278.58 274.19 283.06 270.17 287.68 266.27 292.22 262.25 296.92 258.34 301.78 254.54 306.57 250.6 311.53 246.76 316.66 243.04 321.74 239.17 327.01 235.42 332.45 231.79 337.85 228.04 343.44 224.43 349.22 220.98 354.97 217.44 360.92 214.08 367.07 210.95 373.19 207.76 379.53 204.84 386.06 202.21 392.58 199.59 399.31 197.32 406.25 195.42" stroke-dasharray="2 4" transform="rotate(32.32, 400, 400)" opacity="0.49"></path><path d="M410.16 206.26C416.77 204.51 423.41 203.2 430.08 202.32 436.75 201.56 443.44 201.27 450.14 201.42 456.84 201.73 463.54 202.5 470.22 203.71 476.9 205.09 483.56 206.91 490.15 209.15 496.73 211.56 503.24 214.37 509.65 217.56 516.02 220.89 522.27 224.59 528.35 228.62 534.38 232.78 540.2 237.24 545.79 241.97 551.28 246.81 556.49 251.9 561.38 257.21 566.13 262.59 570.52 268.18 574.51 273.94 578.31 279.74 581.67 285.7 584.56 291.79 587.23 297.91 589.39 304.15 591.03 310.47 592.45 316.82 593.32 323.24 593.65 329.72 593.77 336.22 593.37 342.77 592.44 349.35 591.36 355.93 589.8 362.54 587.79 369.16 585.71 375.79 583.26 382.41 580.46 389.02 577.71 395.63 574.71 402.22 571.49 408.76 568.46 415.3 565.37 421.63 562.26 427.74 559.43 433.85 556.62 439.72 553.87 445.36 550.25 453.67 543.81 468.97 540.94 475.92 538.5 482.56 533.82 494.37 531.43 499.54 526.45 508.63 517.18 519.92 513.22 523 508.95 526.07 498.84 531.82 492.98 534.63 486.77 537.75 472.81 544.37 465.1 547.96 459.84 550.66 454.33 553.4 448.57 556.18 442.79 559.24 436.78 562.32 430.56 565.38 424.33 568.67 417.89 571.9 411.26 575.02 404.63 578.27 397.98 581.27 391.32 583.96 384.67 586.67 378.02 589 371.4 590.91 364.78 592.75 358.19 594.1 351.66 594.97 345.13 595.68 338.66 595.86 332.26 595.51 325.87 594.95 319.57 593.85 313.36 592.23 307.18 590.38 301.1 588.02 295.15 585.18 289.24 582.13 283.46 578.62 277.85 574.69 272.29 570.58 266.9 566.09 261.71 561.25 256.59 556.28 251.68 551 247.02 545.46 242.44 539.82 238.11 533.96 234.08 527.91 230.14 521.8 226.5 515.54 223.18 509.15 219.98 502.73 217.12 496.22 214.62 489.64 212.24 483.04 210.23 476.39 208.61 469.72 207.12 463.05 206.02 456.36 205.32 449.68 204.75 443.01 204.57 436.34 204.82 429.71 205.16 423.07 205.91 416.47 207.07 409.92 208.3 403.37 209.89 397.02 211.82 390.88 213.77 384.73 216.04 378.77 218.59 373.03 221.13 367.26 223.93 361.7 226.97 356.33 229.97 350.95 233.18 345.75 236.59 340.74 239.94 335.7 243.47 330.84 247.16 326.16 250.78 321.43 254.56 316.87 258.48 312.47 262.32 308.01 266.3 303.7 270.42 299.53 274.45 295.29 278.62 291.17 282.92 287.19 287.14 283.1 291.51 279.13 296.01 275.28 300.44 271.31 305.01 267.44 309.73 263.69 314.39 259.81 319.2 256.03 324.17 252.37 329.09 248.58 334.18 244.91 339.42 241.37 344.63 237.72 350.02 234.21 355.57 230.87 361.1 227.44 366.81 224.21 372.7 221.19 378.58 218.13 384.63 215.32 390.88 212.8 397.11 210.29 403.54 208.1 410.15 206.27" stroke-dasharray="10 7" transform="rotate(36.36, 400, 400)" opacity="0.37"></path><path d="M413.7 217.11C419.98 215.42 426.27 214.14 432.57 213.26 438.87 212.5 445.18 212.15 451.48 212.23 464.07 212.8 476.6 215.07 488.84 218.92 501.01 223.35 512.8 229.27 523.92 236.49 534.8 244.16 544.79 252.97 553.61 262.69 561.9 272.69 568.75 283.46 573.89 294.76 578.29 306.21 580.84 318.1 581.42 330.24 581.32 342.44 579.4 354.84 575.74 367.25 573.84 373.46 571.59 379.68 569.02 385.87 566.5 392.06 563.75 398.23 560.78 404.34 557.97 410.46 555.08 416.37 552.17 422.07 549.48 427.77 546.8 433.25 544.14 438.5 539.66 448.96 535.29 458.48 531.06 466.97 527.82 475.41 524.43 482.84 520.78 489.21 517.7 495.62 514 501.1 509.54 505.7 505.26 510.57 499.98 514.81 493.65 518.53 487.28 522.89 479.78 527.06 471.21 531.11 462.53 536.13 452.81 541.24 442.15 546.38 436.79 549.32 431.22 552.26 425.43 555.15 419.63 558.25 413.64 561.27 407.45 564.17 401.27 567.19 395.05 569.96 388.82 572.45 382.6 574.96 376.37 577.12 370.16 578.91 357.77 582.26 345.46 583.82 333.43 583.54 321.47 582.56 309.81 579.64 298.65 574.92 287.63 569.47 277.17 562.37 267.47 553.9 258.02 544.92 249.43 534.81 241.9 523.87 234.74 512.68 228.75 500.87 224.09 488.7 219.88 476.46 217.07 463.96 215.79 451.43 215.31 445.16 215.21 438.89 215.5 432.63 215.88 426.38 216.64 420.14 217.78 413.94 219 407.74 220.55 401.71 222.41 395.87 224.31 390.03 226.5 384.36 228.95 378.87 233.85 367.87 239.7 357.54 246.33 347.92 252.75 338.17 259.87 329.03 267.55 320.51 274.94 311.74 282.89 303.48 291.34 295.73 299.49 287.61 308.19 279.89 317.39 272.62 326.38 264.92 335.96 257.62 346.1 250.84 356.1 243.69 366.75 237.15 378.03 231.39 383.64 228.47 389.42 225.78 395.37 223.37 401.31 220.97 407.42 218.87 413.69 217.11" stroke-dasharray="10 6" transform="rotate(40.400000000000006, 400, 400)" opacity="0.24"></path><path d="M416.77 227.96C428.62 224.79 440.49 223.18 452.24 223.08 464 223.45 475.61 225.39 486.87 228.79 498.06 232.7 508.8 238 518.84 244.51 528.63 251.43 537.55 259.45 545.32 268.33 552.62 277.49 558.58 287.39 562.96 297.83 566.72 308.42 568.82 319.46 569.15 330.74 568.94 342.1 567.11 353.65 563.74 365.21 560.26 376.81 555.63 388.4 550.06 399.78 545.04 411.17 539.75 421.79 534.44 431.56 530.04 441.3 525.67 450.18 521.36 458.12 517.9 466.04 514.3 473.06 510.46 479.16 507.16 485.33 503.32 490.7 498.85 495.31 494.59 500.22 489.46 504.59 483.45 508.51 477.43 513.02 470.42 517.34 462.45 521.54 454.41 526.56 445.41 531.6 435.54 536.6 425.62 542.42 414.87 548.08 403.39 553.33 391.91 558.99 380.28 563.58 368.7 566.92 357.15 570.06 345.69 571.6 334.47 571.5 323.33 570.83 312.49 568.41 302.12 564.37 291.9 559.7 282.22 553.52 273.27 546.04 264.57 538.1 256.68 529.07 249.8 519.2 243.27 509.1 237.82 498.33 233.63 487.15 229.85 475.89 227.36 464.31 226.3 452.63 225.61 440.94 226.32 429.18 228.5 417.49 230.92 405.8 234.58 394.71 239.27 384.28 243.98 373.81 249.6 363.93 255.96 354.67 262.15 345.29 269.02 336.44 276.44 328.15 283.6 319.63 291.31 311.55 299.48 303.95 307.4 296.02 315.84 288.47 324.73 281.34 333.42 273.86 342.66 266.77 352.39 260.2 362.01 253.34 372.2 247.06 382.94 241.57 393.62 236 404.91 231.38 416.76 227.96" stroke-dasharray="5 4" transform="rotate(44.44, 400, 400)" opacity="0.91"></path><path d="M419.26 238.8C430.38 235.77 441.46 234.17 452.36 233.96 463.25 234.16 473.92 235.79 484.21 238.76 494.4 242.17 504.11 246.87 513.1 252.69 521.86 258.89 529.75 266.11 536.55 274.16 542.94 282.47 548.09 291.5 551.8 301.06 555 310.77 556.71 320.92 556.85 331.33 556.58 341.81 554.86 352.49 551.78 363.2 548.63 373.94 544.43 384.67 539.34 395.23 534.73 405.78 529.79 415.64 524.75 424.71 520.47 433.77 516.15 442.05 511.82 449.5 508.22 456.94 504.46 463.6 500.48 469.47 496.99 475.43 493.04 480.71 488.56 485.35 484.3 490.27 479.31 494.73 473.55 498.81 467.83 503.42 461.25 507.84 453.82 512.11 446.36 517.08 438.03 522.02 428.91 526.84 419.75 532.34 409.82 537.63 399.21 542.48 388.6 547.69 377.85 551.9 367.13 554.96 356.45 557.88 345.84 559.37 335.46 559.4 325.18 558.98 315.17 557 305.62 553.56 296.22 549.6 287.34 544.25 279.16 537.69 271.21 530.74 264.03 522.73 257.8 513.9 251.88 504.84 246.98 495.11 243.25 484.92 239.87 474.64 237.7 464.01 236.84 453.19 236.32 442.37 237.09 431.41 239.22 420.45 241.57 409.49 245.07 399.04 249.55 389.15 254.05 379.22 259.41 369.79 265.48 360.91 271.43 351.92 278.02 343.38 285.13 335.33 292.04 327.09 299.47 319.24 307.34 311.81 314.99 304.12 323.13 296.77 331.68 289.84 340.06 282.61 348.93 275.78 358.24 269.46 367.44 262.91 377.16 256.93 387.34 251.7 397.48 246.43 408.14 242.06 419.26 238.8" stroke-dasharray="3 4" transform="rotate(48.48, 400, 400)" opacity="0.78"></path><path d="M421.08 249.65C431.45 246.76 441.71 245.19 451.74 244.89 461.75 244.93 471.49 246.28 480.8 248.85 490.02 251.79 498.71 255.92 506.7 261.08 514.47 266.57 521.41 273.02 527.32 280.24 532.88 287.71 537.3 295.87 540.43 304.54 543.15 313.35 544.54 322.6 544.54 332.12 544.23 341.71 542.65 351.5 539.85 361.34 537.03 371.22 533.24 381.1 528.62 390.83 524.4 400.57 519.82 409.68 515.07 418.1 510.96 426.5 506.73 434.22 502.43 441.21 498.75 448.23 494.9 454.56 490.83 460.22 487.2 465.98 483.17 471.17 478.69 475.81 474.44 480.72 469.56 485.25 464.04 489.43 458.58 494.08 452.38 498.54 445.45 502.82 438.5 507.7 430.8 512.48 422.38 517.09 413.94 522.26 404.81 527.18 395.05 531.63 385.3 536.4 375.42 540.23 365.57 543.02 355.76 545.71 346.03 547.13 336.52 547.26 327.1 547.04 317.95 545.43 309.24 542.51 300.67 539.17 292.6 534.58 285.18 528.87 277.98 522.82 271.51 515.78 265.92 507.94 260.61 499.89 256.24 491.17 252.95 481.95 249.97 472.65 248.09 462.96 247.43 453.03 247.05 443.08 247.87 432.94 249.94 422.73 252.21 412.52 255.54 402.72 259.78 393.38 264.05 384.02 269.14 375.07 274.9 366.58 280.56 358 286.84 349.81 293.62 342.04 300.25 334.11 307.36 326.52 314.89 319.32 322.24 311.9 330.04 304.81 338.21 298.12 346.25 291.2 354.72 284.66 363.57 278.62 372.34 272.4 381.55 266.75 391.14 261.81 400.71 256.85 410.71 252.73 421.08 249.65" stroke-dasharray="2 7" transform="rotate(52.52, 400, 400)" opacity="0.93"></path><path d="M422.17 260.49C431.77 257.77 441.19 256.23 450.34 255.85 459.47 255.76 468.28 256.85 476.64 259.04 484.91 261.55 492.64 265.13 499.67 269.66 506.52 274.47 512.58 280.17 517.67 286.59 522.49 293.23 526.27 300.53 528.89 308.31 531.19 316.24 532.33 324.59 532.24 333.2 531.93 341.89 530.49 350.8 527.98 359.78 525.46 368.78 522.07 377.81 517.9 386.75 514.07 395.68 509.84 404.07 505.4 411.85 501.49 419.63 497.39 426.83 493.18 433.39 489.49 439.99 485.6 446.02 481.51 451.47 477.8 457.04 473.73 462.12 469.29 466.74 465.05 471.61 460.3 476.15 455 480.37 449.78 484.99 443.93 489.43 437.45 493.66 430.99 498.4 423.86 502.99 416.12 507.35 408.36 512.18 399.99 516.72 391.07 520.79 382.15 525.12 373.14 528.58 364.16 531.1 355.22 533.56 346.37 534.9 337.73 535.09 329.18 535.01 320.89 533.71 313.02 531.25 305.29 528.46 298.02 524.54 291.38 519.6 284.92 514.38 279.14 508.24 274.18 501.33 269.46 494.24 265.6 486.49 262.73 478.23 260.13 469.89 258.54 461.12 258.05 452.07 257.81 443 258.66 433.69 260.66 424.24 262.83 414.8 265.98 405.67 269.97 396.91 274 388.13 278.79 379.68 284.21 371.62 289.56 363.49 295.5 355.68 301.92 348.23 308.21 340.66 314.98 333.38 322.12 326.47 329.13 319.37 336.55 312.59 344.31 306.19 351.96 299.6 359.99 293.39 368.35 287.68 376.64 281.83 385.31 276.51 394.3 271.88 403.26 267.25 412.57 263.39 422.17 260.49" stroke-dasharray="8 6" transform="rotate(56.56, 400, 400)" opacity="0.55"></path><path d="M422.49 271.34C431.29 268.78 439.88 267.3 448.15 266.85 456.4 266.65 464.3 267.51 471.73 269.35 479.08 271.46 485.9 274.53 492.04 278.46 498.04 282.63 503.28 287.61 507.65 293.26 511.8 299.1 515.02 305.54 517.21 312.47 519.17 319.51 520.09 326.96 519.96 334.69 519.66 342.49 518.38 350.51 516.14 358.62 513.93 366.76 510.92 374.96 507.18 383.1 503.72 391.24 499.86 398.93 495.75 406.1 492.05 413.28 488.14 419.96 484.07 426.12 480.43 432.32 476.57 438.04 472.51 443.28 468.77 448.63 464.72 453.58 460.34 458.14 456.16 462.92 451.54 467.41 446.47 471.62 441.48 476.15 435.96 480.5 429.93 484.63 423.91 489.17 417.33 493.53 410.24 497.62 403.13 502.09 395.5 506.25 387.4 509.94 379.29 513.85 371.13 516.96 363.02 519.21 354.95 521.44 346.96 522.67 339.2 522.89 331.51 522.92 324.09 521.88 317.06 519.81 310.14 517.49 303.67 514.16 297.78 509.92 292.05 505.45 286.95 500.13 282.6 494.09 278.45 487.91 275.09 481.07 272.62 473.73 270.38 466.32 269.05 458.46 268.72 450.29 268.6 442.09 269.47 433.61 271.38 424.95 273.44 416.28 276.39 407.84 280.11 399.69 283.88 391.52 288.35 383.61 293.41 376.02 298.43 368.37 304 360.99 310.01 353.92 315.95 346.74 322.31 339.84 329.03 333.25 335.66 326.53 342.65 320.1 349.95 314.04 357.17 307.84 364.72 302.01 372.55 296.64 380.33 291.18 388.42 286.23 396.76 281.93 405.09 277.63 413.69 274.05 422.49 271.34" stroke-dasharray="7 3" transform="rotate(60.599999999999994, 400, 400)" opacity="0.26"></path><path d="M422.03 282.18C430.03 279.8 437.77 278.39 445.17 277.9 452.56 277.6 459.57 278.25 466.11 279.77 472.59 281.51 478.55 284.11 483.88 287.48 489.08 291.05 493.59 295.34 497.32 300.26 500.88 305.33 503.61 310.96 505.44 317.04 507.09 323.23 507.86 329.81 507.7 336.67 507.43 343.58 506.31 350.73 504.35 358 502.42 365.29 499.78 372.67 496.46 380.03 493.37 387.4 489.87 394.4 486.1 400.97 482.65 407.55 478.96 413.74 475.08 419.49 471.55 425.28 467.78 430.68 463.82 435.69 460.13 440.8 456.15 445.58 451.89 450.03 447.8 454.66 443.34 459.04 438.51 463.16 433.76 467.55 428.58 471.75 422.97 475.72 417.39 480.01 411.34 484.1 404.86 487.9 398.39 492 391.47 495.78 384.16 499.1 376.85 502.59 369.52 505.36 362.26 507.35 355.03 509.34 347.91 510.46 341.02 510.69 334.18 510.79 327.6 509.95 321.39 508.22 315.28 506.3 309.59 503.49 304.43 499.87 299.41 496.07 294.96 491.51 291.19 486.27 287.59 480.92 284.7 474.95 282.61 468.49 280.71 461.96 279.63 454.99 279.44 447.67 279.42 440.34 280.29 432.69 282.09 424.81 284.03 416.93 286.78 409.2 290.22 401.69 293.71 394.17 297.84 386.83 302.51 379.75 307.17 372.63 312.34 365.72 317.92 359.08 323.44 352.36 329.37 345.88 335.63 339.68 341.82 333.39 348.34 327.37 355.13 321.69 361.87 315.92 368.9 310.49 376.15 305.51 383.38 300.47 390.85 295.91 398.52 291.94 406.17 287.99 414.04 284.69 422.03 282.18" stroke-dasharray="2 3" transform="rotate(64.64, 400, 400)" opacity="0.62"></path><path d="M420.81 293.03C427.98 290.84 434.88 289.5 441.44 288.98 451.05 288.85 468.07 292.81 475.22 296.74 481.63 301.58 490.9 314.39 493.59 322.09 495 327.45 495.64 333.19 495.49 339.2 495.27 345.25 494.31 351.55 492.62 357.99 490.96 364.44 488.66 371.02 485.74 377.62 483 384.23 479.87 390.55 476.45 396.53 473.28 402.52 469.84 408.2 466.21 413.54 462.83 418.91 459.23 423.97 455.42 428.71 451.84 433.54 447.99 438.1 443.9 442.38 439.95 446.81 435.7 451.02 431.14 454.99 426.66 459.17 421.82 463.16 416.64 466.91 411.49 470.91 405.96 474.7 400.09 478.19 394.23 481.9 388 485.3 381.47 488.25 374.94 491.35 368.42 493.78 362 495.53 355.59 497.28 349.32 498.26 343.26 498.49 334.37 498.29 318.29 493.74 311.37 489.49 305.11 484.34 295.68 470.73 292.72 462.52 291.13 456.84 290.27 450.72 290.2 444.24 290.27 437.75 291.12 430.92 292.81 423.85 294.61 416.77 297.14 409.77 300.28 402.92 303.47 396.07 307.25 389.35 311.52 382.83 315.79 376.28 320.52 369.9 325.63 363.74 330.72 357.53 336.17 351.52 341.92 345.78 347.62 339.96 353.63 334.4 359.87 329.15 366.08 323.85 372.54 318.86 379.17 314.3 385.8 309.69 392.62 305.53 399.58 301.92 406.53 298.33 413.64 295.33 420.81 293.03" stroke-dasharray="6 1" transform="rotate(68.68, 400, 400)" opacity="0.29"></path><path d="M418.87 303.88C431.57 299.99 443.1 299.15 452.98 300.99 462.68 303.35 470.5 308.33 475.91 315.36 480.97 322.77 483.54 331.98 483.34 342.34 482.98 352.84 480.2 364.25 475.02 375.96 470.4 387.68 464.33 398.56 457.43 408.32 451.32 418.2 444.22 427.23 436.38 435.19 429.01 443.65 420.49 451.42 410.99 458.2 401.6 465.72 390.98 472.34 379.42 477.41 367.87 482.9 356.52 485.87 346 486.31 335.62 486.52 326.27 483.94 318.61 478.84 311.3 473.39 305.89 465.57 302.93 455.9 300.45 446.08 300.51 434.63 303.53 422.08 306.91 409.53 312.77 397.09 320.43 385.27 328.13 373.39 337.5 361.98 347.91 351.55 358.24 340.94 369.66 331.22 381.63 323 393.57 314.72 406.17 308.09 418.87 303.88" stroke-dasharray="8 7" transform="rotate(72.72, 400, 400)" opacity="0.24"></path><path d="M416.27 314.72C427.31 311.24 437.23 310.36 445.61 311.79 453.87 313.59 460.45 317.64 464.96 323.48 469.24 329.6 471.4 337.34 471.25 346.15 471.02 355.06 468.71 364.87 464.31 375.11 460.31 385.34 454.94 395.02 448.74 403.84 443.11 412.77 436.54 421.05 429.3 428.45 422.43 436.22 414.62 443.37 406.05 449.57 397.58 456.31 388.17 462.17 378.09 466.56 368.02 471.28 358.25 473.8 349.3 474.15 340.45 474.38 332.58 472.24 326.2 467.97 320.07 463.47 315.61 456.91 313.28 448.69 311.29 440.35 311.5 430.52 314.25 419.58 317.28 408.63 322.49 397.65 329.26 387.13 336.1 376.57 344.41 366.38 353.64 357.03 362.85 347.58 372.99 338.93 383.57 331.63 394.15 324.32 405.22 318.47 416.27 314.72" stroke-dasharray="4 5" transform="rotate(76.76, 400, 400)" opacity="0.11"></path><path d="M413.11 325.57C422.51 322.5 430.86 321.63 437.85 322.7 444.75 324.03 450.21 327.24 453.92 332 457.5 336.94 459.33 343.29 459.24 350.63 459.12 358.03 457.26 366.32 453.59 375.09 450.21 383.86 445.57 392.3 440.12 400.11 435.07 408.01 429.16 415.43 422.65 422.13 416.41 429.08 409.4 435.49 401.83 441.02 394.33 446.91 386.14 451.98 377.52 455.72 368.89 459.69 360.66 461.77 353.2 462.03 345.81 462.23 339.32 460.47 334.13 456.94 329.12 453.27 325.53 447.85 323.74 440.98 322.2 434.04 322.51 425.75 324.97 416.41 327.64 407.07 332.15 397.61 338.01 388.46 343.93 379.3 351.13 370.42 359.13 362.26 367.12 354.04 375.92 346.53 385.06 340.2 394.2 333.88 403.71 328.83 413.11 325.57" stroke-dasharray="10 7" transform="rotate(80.80000000000001, 400, 400)" opacity="0.58"></path><path d="M409.49 336.41C420.68 333.39 437.64 335.91 442.87 340.9 445.81 344.78 447.34 349.84 447.31 355.79 447.3 361.79 445.84 368.58 442.87 375.91 440.1 383.22 436.2 390.38 431.57 397.1 427.19 403.88 422.04 410.32 416.38 416.18 410.9 422.21 404.8 427.76 398.3 432.53 391.85 437.53 384.91 441.78 377.72 444.87 370.53 448.12 363.77 449.79 357.73 449.96 349.13 449.39 337.05 440.67 334.34 432.88 333.19 427.24 333.56 420.44 335.69 412.7 337.97 404.96 341.77 397.05 346.68 389.35 351.66 381.66 357.7 374.16 364.41 367.26 371.14 360.35 378.52 354.02 386.16 348.7 393.81 343.41 401.72 339.17 409.49 336.41" stroke-dasharray="7 10" transform="rotate(84.84, 400, 400)" opacity="0.64"></path><path d="M405.55 347.26C417.86 343.08 427.07 344.55 431.85 350.18 436.52 356.09 436.87 365.78 432.15 377.53 427.93 389.27 419.97 400.91 410.46 410.58 401.39 420.66 390.23 429.26 378.7 434.02 367.16 439.2 357.36 439.13 351.09 434.63 345.08 429.99 342.99 420.87 346.4 408.56 350.23 396.25 358.8 383.23 369.52 372.09 380.35 360.97 393.23 351.79 405.55 347.26" stroke-dasharray="2 9" transform="rotate(88.88, 400, 400)" opacity="0.94"></path><path d="M401.41 358.1C413.95 355.33 424.66 367.53 421.43 379.9 418.29 388.74 412.19 397.72 404.84 405.27 397.72 413.04 389.1 419.61 380.41 423.18 368.14 426.91 355.13 416.67 357.12 404.14 360.04 394.97 366.49 385.18 374.52 376.79 382.64 368.44 392.26 361.54 401.41 358.1" stroke-dasharray="2 8" transform="rotate(92.92, 400, 400)" opacity="0.32"></path><path d="M397.22 368.95C409.29 364.63 415.21 371.1 410.71 382.95 406.69 394.79 394.46 407.71 382.81 412.33 371.15 417.35 364.22 411.72 367.84 399.57 371.89 387.42 385.14 373.65 397.22 368.95" stroke-dasharray="3 10" transform="rotate(96.96, 400, 400)" opacity="0.58"></path></g></svg>